<svg width="32px" height="32px" viewBox="0 0 32 32" id="icon" xmlns="http://www.w3.org/2000/svg">
  <defs>
    <style>
      .cls-1 {
        fill: none;
      }
    </style>
  </defs>
  <circle cx="25" cy="20" r="1"/>
  <path d="M19.4141,30H15V25.5857l5.0337-5.0337A4.6069,4.6069,0,0,1,20,20a5,5,0,1,1,4.4478,4.9663ZM17,28h1.5859l5.2061-5.2063.5395.1238a3.0351,3.0351,0,1,0-2.249-2.2488l.1236.5393L17,26.4143Z" transform="translate(0 0)"/>
  <rect x="6" y="8" width="2" height="8"/>
  <rect x="2" y="8" width="2" height="8"/>
  <rect x="18" y="8" width="2" height="6"/>
  <path d="M14,16H12a2,2,0,0,1-2-2V10a2,2,0,0,1,2-2h2a2,2,0,0,1,2,2v4A2,2,0,0,1,14,16Zm-2-2h2V10H12Z" transform="translate(0 0)"/>
  <rect x="2" y="18" width="2" height="8"/>
  <rect x="14" y="18" width="2" height="4"/>
  <path d="M10,26H8a2,2,0,0,1-2-2V20a2,2,0,0,1,2-2h2a2,2,0,0,1,2,2v4A2,2,0,0,1,10,26ZM8,24h2V20H8Z" transform="translate(0 0)"/>
  <rect x="2" y="2" width="2" height="4"/>
  <rect x="14" y="2" width="2" height="4"/>
  <rect x="18" y="2" width="2" height="4"/>
  <path d="M10,6H8A2,2,0,0,1,6,4V2H8V4h2V2h2V4A2,2,0,0,1,10,6Z" transform="translate(0 0)"/>
  <rect id="_Transparent_Rectangle_" data-name="&lt;Transparent Rectangle&gt;" class="cls-1" width="32" height="32"/>
  <defs>
<linearGradient id="paint0_linear" x1="3.69867" y1="4.89825" x2="22.5688" y2="37.2522" gradientUnits="userSpaceOnUse">
<stop offset="0.259336" stop-color="#20c863"/>
<stop offset="1" stop-color="#20c863"/>
</linearGradient>
<linearGradient id="paint1_linear" x1="1.17724" y1="18.7359" x2="2.78931" y2="19.2346" gradientUnits="userSpaceOnUse">
<stop offset="0.259336" stop-color="#20c863"/>
<stop offset="1" stop-color="#20c863"/>
</linearGradient>
<linearGradient id="paint2_linear" x1="1.17724" y1="18.7359" x2="2.78931" y2="19.2346" gradientUnits="userSpaceOnUse">
<stop offset="0.259336" stop-color="#20c863"/>
<stop offset="1" stop-color="#20c863"/>
</linearGradient>
<linearGradient id="paint3_linear" x1="3.26667" y1="0.900025" x2="27.6816" y2="36.6089" gradientUnits="userSpaceOnUse">
<stop offset="0.259336" stop-color="#20c863"/>
<stop offset="1" stop-color="#20c863"/>
</linearGradient>
<linearGradient id="paint4_linear" x1="3.26667" y1="0.900025" x2="27.6816" y2="36.6089" gradientUnits="userSpaceOnUse">
<stop offset="0.259336" stop-color="#20c863"/>
<stop offset="1" stop-color="#20c863"/>
</linearGradient>
<linearGradient id="paint5_linear" x1="14.1208" y1="12.223" x2="27.511" y2="27.0155" gradientUnits="userSpaceOnUse">
<stop offset="0.259336" stop-color="#20c863"/>
<stop offset="1" stop-color="#20c863"/>
</linearGradient>
<linearGradient id="paint6_linear" x1="14.1208" y1="12.223" x2="27.511" y2="27.0155" gradientUnits="userSpaceOnUse">
<stop offset="0.259336" stop-color="#20c863"/>
<stop offset="1" stop-color="#20c863"/>
</linearGradient>
<linearGradient id="paint7_linear" x1="16.2288" y1="14.5995" x2="25.5157" y2="24.8592" gradientUnits="userSpaceOnUse">
<stop offset="0.259336" stop-color="#20c863"/>
<stop offset="1" stop-color="#20c863"/>
</linearGradient>
<linearGradient id="paint8_linear" x1="16.2288" y1="14.5995" x2="25.5157" y2="24.8592" gradientUnits="userSpaceOnUse">
<stop offset="0.259336" stop-color="#20c863"/>
<stop offset="1" stop-color="#20c863"/>
</linearGradient>
</defs>
</svg>
